<svg width="248" height="171" viewBox="0 0 248 171" fill="none" xmlns="http://www.w3.org/2000/svg">
<path d="M0 0.749268H30.9547V93.6133H0V0.749268Z" fill="black"/>
<path d="M123.816 0.749268H154.771V171H123.816V0.749268Z" fill="black"/>
<path d="M61.9082 47.1812H92.8629V124.568H61.9082V47.1812Z" fill="black"/>
<path d="M108.342 31.7036V0.748939L185.728 0.748939V31.7036L108.342 31.7036Z" fill="black"/>
<path d="M185.729 0.749268H216.683V171H185.729V0.749268Z" fill="black"/>
<path d="M92.8613 171V140.045H154.771V171H92.8613Z" fill="black"/>
<path d="M154.773 171V140.045H247.637V171H154.773Z" fill="black"/>
<path d="M185.729 31.7036V0.748939L247.638 0.748939V31.7036L185.729 31.7036Z" fill="black"/>
<path d="M0 93.6133H30.9547V124.568H0V93.6133Z" fill="black"/>
<path d="M61.9093 124.568H92.864C92.864 150.212 72.0757 171 46.432 171C20.7883 171 0 150.212 0 124.568H30.9547C30.9547 133.116 37.8841 140.045 46.432 140.045C54.9799 140.045 61.9093 133.116 61.9093 124.568Z" fill="black"/>
<path d="M92.8645 47.1812L61.9098 47.1812C61.9098 21.5374 82.6981 0.749146 108.342 0.749146V31.7038C99.7939 31.7038 92.8645 38.6332 92.8645 47.1812Z" fill="black"/>
</svg>
